<svg width="40" height="36" viewBox="0 0 40 36" fill="none" xmlns="http://www.w3.org/2000/svg">
<g clip-path="url(#clip0_1911_300)">
<path d="M8.16421 28.9263C8.54257 28.9263 8.85098 28.6169 8.85098 28.2374C8.85098 27.8579 8.54575 27.5486 8.16421 27.5486C4.63821 27.5486 1.76717 24.6623 1.76717 21.1159C1.76717 18.2934 3.65258 15.7612 6.35193 14.9607C6.53316 14.9065 6.68577 14.7789 6.77162 14.6099C6.85746 14.4408 6.867 14.2399 6.80341 14.0613C6.4187 13.0152 6.22475 11.915 6.22475 10.7923C6.22475 5.60028 10.4248 1.37456 15.5914 1.37456C19.5085 1.37456 23.044 3.86534 24.3857 7.57442C24.478 7.82637 24.7037 8.00177 24.9676 8.02729C25.2251 8.05599 25.4858 7.92204 25.6194 7.68923C26.8689 5.54288 29.1804 4.20659 31.6476 4.20659C35.4979 4.20659 38.6297 7.35436 38.6297 11.2261C38.6297 13.7073 37.307 16.0291 35.1736 17.2856C34.9797 17.4004 34.8557 17.6014 34.8366 17.8246C34.8175 18.0478 34.9097 18.2679 35.0846 18.4114C36.2705 19.3937 36.9477 20.8416 36.9477 22.3788C36.9477 25.2268 34.6426 27.5486 31.8098 27.5486H19.5117C19.1333 27.5486 18.8249 27.8579 18.8249 28.2406C18.8249 28.6233 19.1301 28.9295 19.5117 28.9295H31.8034C35.393 28.9295 38.3149 25.9922 38.3149 22.382C38.3149 20.7396 37.7044 19.1768 36.6107 17.9809C38.7187 16.4054 39.9968 13.8955 39.9968 11.2293C39.9968 6.59851 36.2514 2.82885 31.6444 2.82885C29.1199 2.82885 26.7385 3.99291 25.1647 5.93196C23.3588 2.34089 19.6516 0 15.5882 0C9.66809 0 4.85123 4.84125 4.85123 10.7955C4.85123 11.8448 5.00067 12.8781 5.29635 13.8731C2.3808 15.0404 0.400005 17.9267 0.400005 21.1159C0.400005 25.4181 3.88468 28.9231 8.16739 28.9231L8.16421 28.9263Z" fill="#2BDEFD"/>
<path d="M8.81905 27.9088L11.884 34.0544L12.3164 34.9251H11.0796L14.4944 28.7858L14.9808 27.9088C15.4291 27.1019 16.6659 27.8258 16.2176 28.6327L12.8029 34.772L12.3164 35.649C12.0653 36.0987 11.3213 36.1338 11.0796 35.649L8.01466 29.5034L7.58225 28.6327C7.1721 27.8099 8.40573 27.0828 8.81905 27.9088Z" fill="#2BDEFD"/>
</g>
<defs>
<clipPath id="clip0_1911_300">
<rect width="39.6" height="36" fill="white" transform="matrix(-1 0 0 1 40 0)"/>
</clipPath>
</defs>
</svg>
